<?xml version="1.0" encoding="UTF-8"?>
<!DOCTYPE svg
  PUBLIC '-//W3C//DTD SVG 1.1//EN'
  'http://www.w3.org/Graphics/SVG/1.1/DTD/svg11.dtd'>
<svg height="23.000mm" version="1.1" width="44.000mm" xmlns="http://www.w3.org/2000/svg">
    <!--Autogenerated with python-barcode 0.11.0-->
    <g id="barcode_group">
        <rect height="100%" style="fill:white" width="100%"/>
        <rect height="15.000mm" style="fill:black;" width="0.330mm" x="6.500mm" y="1.000mm"/>
        <rect height="15.000mm" style="fill:white;" width="0.330mm" x="6.830mm" y="1.000mm"/>
        <rect height="15.000mm" style="fill:black;" width="0.330mm" x="7.160mm" y="1.000mm"/>
        <rect height="15.000mm" style="fill:white;" width="0.660mm" x="7.490mm" y="1.000mm"/>
        <rect height="15.000mm" style="fill:black;" width="0.660mm" x="8.150mm" y="1.000mm"/>
        <rect height="15.000mm" style="fill:white;" width="0.660mm" x="8.810mm" y="1.000mm"/>
        <rect height="15.000mm" style="fill:black;" width="0.330mm" x="9.470mm" y="1.000mm"/>
        <rect height="15.000mm" style="fill:white;" width="0.990mm" x="9.800mm" y="1.000mm"/>
        <rect height="15.000mm" style="fill:black;" width="0.660mm" x="10.790mm" y="1.000mm"/>
        <rect height="15.000mm" style="fill:white;" width="0.330mm" x="11.450mm" y="1.000mm"/>
        <rect height="15.000mm" style="fill:black;" width="0.330mm" x="11.780mm" y="1.000mm"/>
        <rect height="15.000mm" style="fill:white;" width="0.330mm" x="12.110mm" y="1.000mm"/>
        <rect height="15.000mm" style="fill:black;" width="0.660mm" x="12.440mm" y="1.000mm"/>
        <rect height="15.000mm" style="fill:white;" width="0.660mm" x="13.100mm" y="1.000mm"/>
        <rect height="15.000mm" style="fill:black;" width="0.660mm" x="13.760mm" y="1.000mm"/>
        <rect height="15.000mm" style="fill:white;" width="0.990mm" x="14.420mm" y="1.000mm"/>
        <rect height="15.000mm" style="fill:black;" width="0.660mm" x="15.410mm" y="1.000mm"/>
        <rect height="15.000mm" style="fill:white;" width="0.330mm" x="16.070mm" y="1.000mm"/>
        <rect height="15.000mm" style="fill:black;" width="0.330mm" x="16.400mm" y="1.000mm"/>
        <rect height="15.000mm" style="fill:white;" width="0.330mm" x="16.730mm" y="1.000mm"/>
        <rect height="15.000mm" style="fill:black;" width="0.660mm" x="17.060mm" y="1.000mm"/>
        <rect height="15.000mm" style="fill:white;" width="0.660mm" x="17.720mm" y="1.000mm"/>
        <rect height="15.000mm" style="fill:black;" width="0.660mm" x="18.380mm" y="1.000mm"/>
        <rect height="15.000mm" style="fill:white;" width="0.330mm" x="19.040mm" y="1.000mm"/>
        <rect height="15.000mm" style="fill:black;" width="0.330mm" x="19.370mm" y="1.000mm"/>
        <rect height="15.000mm" style="fill:white;" width="0.660mm" x="19.700mm" y="1.000mm"/>
        <rect height="15.000mm" style="fill:black;" width="0.990mm" x="20.360mm" y="1.000mm"/>
        <rect height="15.000mm" style="fill:white;" width="0.330mm" x="21.350mm" y="1.000mm"/>
        <rect height="15.000mm" style="fill:black;" width="0.330mm" x="21.680mm" y="1.000mm"/>
        <rect height="15.000mm" style="fill:white;" width="0.330mm" x="22.010mm" y="1.000mm"/>
        <rect height="15.000mm" style="fill:black;" width="0.330mm" x="22.340mm" y="1.000mm"/>
        <rect height="15.000mm" style="fill:white;" width="0.330mm" x="22.670mm" y="1.000mm"/>
        <rect height="15.000mm" style="fill:black;" width="0.660mm" x="23.000mm" y="1.000mm"/>
        <rect height="15.000mm" style="fill:white;" width="0.660mm" x="23.660mm" y="1.000mm"/>
        <rect height="15.000mm" style="fill:black;" width="0.660mm" x="24.320mm" y="1.000mm"/>
        <rect height="15.000mm" style="fill:white;" width="0.330mm" x="24.980mm" y="1.000mm"/>
        <rect height="15.000mm" style="fill:black;" width="0.990mm" x="25.310mm" y="1.000mm"/>
        <rect height="15.000mm" style="fill:white;" width="0.660mm" x="26.300mm" y="1.000mm"/>
        <rect height="15.000mm" style="fill:black;" width="0.330mm" x="26.960mm" y="1.000mm"/>
        <rect height="15.000mm" style="fill:white;" width="0.330mm" x="27.290mm" y="1.000mm"/>
        <rect height="15.000mm" style="fill:black;" width="0.990mm" x="27.620mm" y="1.000mm"/>
        <rect height="15.000mm" style="fill:white;" width="0.660mm" x="28.610mm" y="1.000mm"/>
        <rect height="15.000mm" style="fill:black;" width="0.330mm" x="29.270mm" y="1.000mm"/>
        <rect height="15.000mm" style="fill:white;" width="0.330mm" x="29.600mm" y="1.000mm"/>
        <rect height="15.000mm" style="fill:black;" width="0.660mm" x="29.930mm" y="1.000mm"/>
        <rect height="15.000mm" style="fill:white;" width="0.660mm" x="30.590mm" y="1.000mm"/>
        <rect height="15.000mm" style="fill:black;" width="0.660mm" x="31.250mm" y="1.000mm"/>
        <rect height="15.000mm" style="fill:white;" width="0.330mm" x="31.910mm" y="1.000mm"/>
        <rect height="15.000mm" style="fill:black;" width="0.990mm" x="32.240mm" y="1.000mm"/>
        <rect height="15.000mm" style="fill:white;" width="0.660mm" x="33.230mm" y="1.000mm"/>
        <rect height="15.000mm" style="fill:black;" width="0.330mm" x="33.890mm" y="1.000mm"/>
        <rect height="15.000mm" style="fill:white;" width="0.330mm" x="34.220mm" y="1.000mm"/>
        <rect height="15.000mm" style="fill:black;" width="0.330mm" x="34.550mm" y="1.000mm"/>
        <rect height="15.000mm" style="fill:white;" width="0.330mm" x="34.880mm" y="1.000mm"/>
        <rect height="15.000mm" style="fill:black;" width="0.330mm" x="35.210mm" y="1.000mm"/>
        <rect height="15.000mm" style="fill:white;" width="1.320mm" x="35.540mm" y="1.000mm"/>
        <rect height="15.000mm" style="fill:black;" width="0.330mm" x="36.860mm" y="1.000mm"/>
        <rect height="15.000mm" style="fill:white;" width="0.330mm" x="37.190mm" y="1.000mm"/>
        <rect height="15.000mm" style="fill:black;" width="0.330mm" x="37.520mm" y="1.000mm"/>
        <text style="fill:black;font-size:10pt;text-anchor:middle;" x="22.175mm" y="21.000mm">1101010100106</text>
    </g>
</svg>
